<?xml version="1.0" encoding="UTF-8"?>
<svg width="50px" height="50px" viewBox="0 0 50 50" version="1.1" xmlns="http://www.w3.org/2000/svg" xmlns:xlink="http://www.w3.org/1999/xlink">
    <!-- Generator: Sketch 47.1 (45422) - http://www.bohemiancoding.com/sketch -->
    <title>brand/logo/emblem</title>
    <desc>Created with Sketch.</desc>
    <defs></defs>
    <g id="Symbols" stroke="none" stroke-width="1" fill="none" fill-rule="evenodd">
        <g id="brand/logo/emblem" fill-rule="nonzero" fill="#F56A75">
            <g id="big-anchor" transform="translate(4.000000, 0.000000)">
                <path d="M41.9813872,37.5734232 L40.4198411,29.1411747 C40.3546521,28.7916907 40.1266967,28.4966294 39.808178,28.3515725 C39.4903813,28.2056734 39.1225583,28.2291478 38.823947,28.4123111 L31.6227223,32.8425469 C31.2008501,33.101923 31.0085836,33.6223594 31.1571156,34.1006893 C31.3050288,34.5798613 31.7552665,34.8917652 32.2462474,34.8569221 L35.0589695,34.6567057 C32.3733248,38.3402879 28.3309843,39.852122 23.6944127,40.2396071 L23.6944127,16.1165803 L26.0099651,16.1165803 C26.3833581,16.4002729 26.8423633,16.5737516 27.3435558,16.5737516 C28.5834888,16.5737516 29.5891744,15.5482477 29.5891744,14.2827368 C29.5891744,13.0164889 28.5834888,11.990985 27.3435558,11.990985 C26.8415382,11.990985 26.3824298,12.1653059 26.0090368,12.4489985 L23.6943095,12.4489985 L23.6943095,9.13595348 C25.0121187,8.24182186 25.8842286,6.71619795 25.8842286,4.98467323 C25.8843318,2.23659224 23.6929686,0 21.0001035,0 C18.3072385,0 16.115669,2.23659224 16.115669,4.98467323 C16.115669,6.71619795 16.9878821,8.24182186 18.3055881,9.13595348 L18.3055881,12.4491038 L15.990964,12.4491038 C15.617571,12.1654112 15.1585658,11.9910903 14.6565482,11.9910903 C13.4166152,11.9910903 12.4109295,13.0165942 12.4109295,14.282842 C12.4109295,15.5482477 13.4166152,16.5738569 14.6565482,16.5738569 C15.1577406,16.5738569 15.6167458,16.4003781 15.9901388,16.1166855 L18.3055881,16.1166855 L18.3055881,40.2397123 C13.6691196,39.8522272 9.62677919,38.3403932 6.94123759,34.6568109 L9.75395974,34.8570274 C10.2448375,34.8918705 10.6951783,34.5799666 10.8429883,34.1007945 C10.9915203,33.6225699 10.799357,33.1020283 10.3774848,32.8426522 L3.17615696,28.4124164 C2.87744255,28.2292531 2.50972263,28.2057787 2.19192598,28.3516777 C1.87340729,28.4967346 1.64545189,28.791796 1.58026283,29.14128 L0.0186135858,37.5735285 C-0.0727748707,38.067122 0.179007547,38.5600839 0.627801198,38.7658794 C1.07659485,38.9727276 1.60481188,38.8380921 1.90672385,38.4408172 L3.58668299,36.2293836 C6.87120062,41.6574383 12.0358862,46.2018881 17.9926394,47.3815018 L20.2468192,49.6819906 C20.6631215,50.1060031 21.3365699,50.1060031 21.7521501,49.6819906 L24.0063299,47.3815018 C29.9630832,46.2027302 35.1284907,41.6574383 38.4131115,36.2293836 L40.0930707,38.4408172 C40.3949826,38.8380921 40.9231997,38.9727276 41.3718902,38.7658794 C41.8209933,38.5599786 42.0727757,38.0670167 41.9813872,37.5734232 Z M21.0001035,3.66737125 C21.7118195,3.66737125 22.290785,4.25833604 22.290785,4.98467323 C22.290785,5.71101043 21.7118195,6.30197522 21.0001035,6.30197522 C20.2883876,6.30197522 19.7092158,5.71101043 19.7092158,4.98467323 C19.709319,4.25833604 20.2883876,3.66737125 21.0001035,3.66737125 Z" id="XMLID_3_"></path>
            </g>
        </g>
    </g>
</svg>